<svg xmlns="http://www.w3.org/2000/svg" xmlns:xlink="http://www.w3.org/1999/xlink" width="1280" height="656" viewBox="0 0 1280 656"><defs><clipPath id="b"><rect width="1280" height="656"/></clipPath></defs><g id="a" clip-path="url(#b)"><rect width="1280" height="656" fill="#f4f8fc"/><path d="M197,0h45a0,0,0,0,1,0,0V197a0,0,0,0,1,0,0H0a0,0,0,0,1,0,0v0A197,197,0,0,1,197,0Z" transform="translate(495 64)" fill="#49d2f9"/><path d="M196,0h40a0,0,0,0,1,0,0V196a0,0,0,0,1,0,0H0a0,0,0,0,1,0,0v0A196,196,0,0,1,196,0Z" transform="translate(973 196) rotate(-180)" fill="#d1f1fb"/><circle cx="97" cy="97" r="97" transform="translate(958 24)" fill="#e8d9c2"/><path d="M161.908,0h32.134a0,0,0,0,1,0,0V161.908a0,0,0,0,1,0,0H0a0,0,0,0,1,0,0v0A161.908,161.908,0,0,1,161.908,0Z" transform="translate(1151.113 246.546) rotate(-90)" fill="#f3bbba"/><ellipse cx="105" cy="104.5" rx="105" ry="104.5" transform="translate(507 271)" fill="#e8d9c2"/><path d="M186.884,0h0a0,0,0,0,1,0,0V194.632a0,0,0,0,1,0,0H0a0,0,0,0,1,0,0v-7.748A186.884,186.884,0,0,1,186.884,0Z" transform="translate(550.947 468.714)" fill="#f3bbba"/><path d="M192.718,407.385h0a231.368,231.368,0,0,1-39.448-7.952,226.809,226.809,0,0,1-36.462-14.267A222.122,222.122,0,0,1,84.032,365.24a215.9,215.9,0,0,1-28.385-24.927,208.047,208.047,0,0,1-23.3-29.273,200,200,0,0,1-17.507-32.965,193.587,193.587,0,0,1,0-148.764A200,200,0,0,1,32.352,96.345a208.045,208.045,0,0,1,23.3-29.274A215.893,215.893,0,0,1,84.032,42.145a222.127,222.127,0,0,1,32.773-19.925A226.814,226.814,0,0,1,153.268,7.954,231.463,231.463,0,0,1,192.718,0Z" transform="translate(727.59 193.373)" fill="#f57b67"/><path d="M195.279,0h38.314a0,0,0,0,1,0,0V195.279a0,0,0,0,1,0,0H0a0,0,0,0,1,0,0v0A195.279,195.279,0,0,1,195.279,0Z" transform="translate(920.588 464.373) rotate(-90)" fill="#49d2f9"/><circle cx="97" cy="97" r="97" transform="translate(921 470)" fill="#d1f1fb"/><path d="M171.8,0h0a0,0,0,0,1,0,0V184.155a0,0,0,0,1,0,0H0a0,0,0,0,1,0,0V171.8A171.8,171.8,0,0,1,171.8,0Z" transform="translate(1126.482 246.214)" fill="#315541"/><path d="M170.56,0h0a0,0,0,0,1,0,0V171.8a0,0,0,0,1,0,0H0a0,0,0,0,1,0,0V170.56A170.56,170.56,0,0,1,170.56,0Z" transform="translate(1126.482 600.929) rotate(-90)" fill="#e7d8c1"/></g></svg>