<svg xmlns="http://www.w3.org/2000/svg" width="71.393" height="45.84" viewBox="0 0 71.393 45.84"><defs><style>.a{fill:#c1272d;}</style></defs><g transform="translate(17.127 0)"><g transform="translate(0 0)"><path class="a" d="M176.892,115.736l-8.148-22.023a3.194,3.194,0,0,0-4.1-1.887l-39.729,14.7a3.194,3.194,0,0,0-1.887,4.1l8.148,22.023a3.189,3.189,0,0,0,4.1,1.887l39.729-14.7h0A3.2,3.2,0,0,0,176.892,115.736Zm-14.435-19.7-12.323,17.617L129.312,108.3Zm-28.865,33.947-7.067-19.1,16.368,4.21Zm3.461.489,9.085-14.548,4.273,1.1a1.624,1.624,0,0,0,.4.051,1.6,1.6,0,0,0,1.31-.682l2.528-3.618,16.366,5.134Zm19.515-20.442,9.686-13.85,7.07,19.106Z" transform="translate(-122.825 -91.625)"/></g></g><g transform="translate(9.493 40.419)"><path class="a" d="M77.194,382.537a1.6,1.6,0,0,0-2.052-.944l-6.018,2.227a1.6,1.6,0,1,0,1.108,3l6.018-2.227A1.6,1.6,0,0,0,77.194,382.537Z" transform="translate(-68.081 -381.494)"/></g><g transform="translate(3.651 25.593)"><g transform="translate(0 0)"><path class="a" d="M32.992,276.208a1.6,1.6,0,0,0-2.052-.944l-3.715,1.374a1.6,1.6,0,1,0,1.108,3l3.715-1.374A1.6,1.6,0,0,0,32.992,276.208Z" transform="translate(-26.182 -275.164)"/></g></g><g transform="translate(0 37.69)"><g transform="translate(0 0)"><path class="a" d="M5.855,362.969a1.6,1.6,0,0,0-2.052-.944l-2.76,1.021a1.6,1.6,0,1,0,1.108,3l2.76-1.021A1.6,1.6,0,0,0,5.855,362.969Z" transform="translate(0 -361.926)"/></g></g></svg>