<svg xmlns="http://www.w3.org/2000/svg" width="48.653" height="48.655" viewBox="0 0 48.653 48.655"><defs><style>.a{fill:#c1272d;}</style></defs><g transform="translate(0 0)"><path class="a" d="M47.413,35.887l-6.049-6.049a4.282,4.282,0,0,0-6.049,0l-2.749,2.749a3.244,3.244,0,0,1-4.582,0L16.068,20.661a3.238,3.238,0,0,1,0-4.582l2.749-2.749a4.274,4.274,0,0,0,0-6.05L12.769,1.251a4.281,4.281,0,0,0-6.044,0l-2.2,2.185a15.44,15.44,0,0,0,0,21.811L23.4,44.134a15.414,15.414,0,0,0,21.811,0l2.2-2.2A4.282,4.282,0,0,0,47.413,35.887ZM8.737,3.267a1.428,1.428,0,0,1,2.018,0L16.8,9.3a1.425,1.425,0,0,1,0,2.016l-1.008,1.008-8.06-8.06ZM25.419,42.119,6.537,23.227A12.534,12.534,0,0,1,5.75,6.311l8.036,8.036a6.085,6.085,0,0,0,.265,8.33L25.968,34.6h0a6.085,6.085,0,0,0,8.33.265l8.036,8.036A12.51,12.51,0,0,1,25.419,42.119Zm19.978-2.2-1.008,1.008-8.065-8.065,1.008-1.008a1.427,1.427,0,0,1,2.016,0L45.4,37.9A1.427,1.427,0,0,1,45.4,39.919Z" transform="translate(-0.011 0)"/></g></svg>