<svg xmlns="http://www.w3.org/2000/svg" xmlns:xlink="http://www.w3.org/1999/xlink" width="1064" height="1066" viewBox="0 0 1064 1066"><defs><clipPath id="a"><rect width="939" height="939" fill="none"/></clipPath><clipPath id="c"><rect width="1064" height="1066"/></clipPath></defs><g id="b" clip-path="url(#c)"><g transform="translate(83 60)" clip-path="url(#a)"><path d="M469.5,939A469.624,469.624,0,0,1,286.748,36.9,469.622,469.622,0,0,1,652.252,902.1,466.567,466.567,0,0,1,469.5,939ZM243.008,631.594l-.009.026A263.849,263.849,0,0,0,385.5,673.34c99.49,0,161.669-46.851,196.311-86.153,43.28-49.1,68.1-114.084,68.1-178.281,0-4.018-.085-8.07-.254-12.043a187.939,187.939,0,0,0,46.354-48.087,185.627,185.627,0,0,1-53.369,14.62,92.874,92.874,0,0,0,40.861-51.4,185.645,185.645,0,0,1-59.01,22.543,92.972,92.972,0,0,0-160.782,63.573,95.13,95.13,0,0,0,2.387,21.212A264.861,264.861,0,0,1,274.533,322.2a93.067,93.067,0,0,0,28.776,124.083A92.165,92.165,0,0,1,261.2,434.66v1.184a93.152,93.152,0,0,0,74.539,91.123,93.654,93.654,0,0,1-24.487,3.275,91.506,91.506,0,0,1-17.451-1.69A92.816,92.816,0,0,0,380.595,593.1a185.336,185.336,0,0,1-115.421,39.8A193.428,193.428,0,0,1,243.008,631.594Z" fill="#9f231d"/></g></g></svg>